<svg xmlns="http://www.w3.org/2000/svg" viewBox="0 0 512 512" role="img" aria-label="Cascadia Tree Works">
  <rect width="512" height="512" rx="64" fill="#20342d"/>
  <g fill="#f7f1df">
    <path d="M250 404c18-52 4-86-31-119-34-31-45-67-28-110 10 36 32 53 64 75 30 22 54 49 55 101 17-50 49-74 80-100 33-28 47-57 37-99 34 48 20 91-23 128-47 40-82 70-79 124h-75Z"/>
    <path d="M242 119c-22 20-28 47-15 77 26-16 38-44 15-77ZM303 111c-8 28 0 50 25 67 14-27 7-52-25-67ZM177 156c-12 28-6 53 18 75 18-25 13-54-18-75ZM376 167c-16 25-14 52 7 77 22-21 22-50-7-77ZM132 229c10 28 32 43 63 42-8-30-31-45-63-42ZM418 242c-30-4-53 8-66 36 32 5 55-7 66-36ZM162 314c25 17 52 17 79-1-22-22-50-22-79 1ZM353 325c28 11 54 5 76-19-28-17-56-10-76 19Z"/>
    <path d="M96 392c62 10 96-1 132-21 37-21 67-21 93-1 36 27 80 32 142 18-57 30-112 31-160 6-24-12-48-12-78 2-40 19-82 21-129-4Z"/>
  </g>
  <text x="256" y="459" text-anchor="middle" fill="#f7f1df" font-family="Arial, Helvetica, sans-serif" font-weight="800" font-size="42" letter-spacing="5">CASCADIA</text>
</svg>
